<?xml version="1.0" encoding="UTF-8" standalone="no"?><!DOCTYPE svg PUBLIC "-//W3C//DTD SVG 1.1//EN" "http://www.w3.org/Graphics/SVG/1.1/DTD/svg11.dtd"><svg width="100%" height="100%" viewBox="0 0 686 677" version="1.1" xmlns="http://www.w3.org/2000/svg" xmlns:xlink="http://www.w3.org/1999/xlink" xml:space="preserve" xmlns:serif="http://www.serif.com/" style="fill-rule:evenodd;clip-rule:evenodd;stroke-linejoin:round;stroke-miterlimit:2;"><path d="M336.964,6.997l13.049,-0.019l-0.015,136.962l83.928,0.402l0.028,16.658l-83.954,1c0,0 -0.329,17.389 -0.414,26.085c-0.041,4.041 -0.097,8.081 -0.189,12.121c-0.432,19.428 0.52,35.637 7.599,54.014c1.62,4.48 2.736,9.058 3.833,13.689c0.309,1.276 0.309,1.276 0.624,2.578c0.607,2.523 1.204,5.048 1.798,7.574c0.807,3.431 1.626,6.859 2.453,10.285c0.173,0.755 0.346,1.51 0.524,2.289c1.516,6.266 3.754,11.93 7.898,16.926c6.076,3.038 12.173,0.788 18.377,-1.177c24.251,-8.221 45.943,-21.556 67.044,-35.784c4.534,-3.038 9.144,-5.927 13.829,-8.727c0.611,-0.371 1.221,-0.743 1.851,-1.126c13.151,-7.743 26.351,-12.949 41.212,-16.249c1.613,-0.374 3.225,-0.749 4.836,-1.127c3.296,-0.769 6.594,-1.527 9.895,-2.275c6.707,-1.521 13.403,-3.092 20.098,-4.665c1.408,-0.331 2.816,-0.661 4.224,-0.991c35.841,-8.399 71.071,-18.375 105.917,-30.223c4.878,-1.655 9.765,-3.283 14.654,-4.906c1.387,-0.462 2.774,-0.924 4.16,-1.387c1.375,-0.458 1.828,-0.496 3.231,-0.964c0.275,2.098 0.521,2.637 0.256,4.867c-1.371,3.124 -24.25,41.379 -35.71,57.171c-0.394,0.544 -0.788,1.088 -1.193,1.648c-7.692,10.565 -24.838,30.137 -24.838,30.137c0,0 -6.922,8.012 -8.969,10.215c-1.014,1.091 -2.441,2.254 -3.312,3c-3.283,2.809 -6.475,5.668 -9.625,8.625c-11.713,10.66 -24.665,19.956 -38.062,28.375c-1.322,0.831 -1.322,0.831 -2.67,1.679c-48.537,30.288 -102.837,49.665 -157.445,65.97c-1.941,0.581 -3.879,1.171 -5.816,1.763c-6.849,1.995 -15.919,3.032 -19.626,2.589c-1.622,-2.249 -2.034,-3.724 -0.437,-6.225c3.623,-1.989 9.511,-3.676 13.494,-4.713c2.402,-0.683 4.805,-1.367 7.207,-2.051c1.225,-0.337 2.451,-0.675 3.713,-1.022c64.882,-17.94 131.646,-44.157 183.58,-87.99c1.008,-0.822 2.016,-1.645 3.055,-2.492c15.933,-13.138 30.722,-27.849 42.945,-44.508c0.837,-1.075 1.678,-2.147 2.523,-3.215c9.93,-12.566 18.356,-26.001 26.477,-39.785c0.998,-1.668 1.998,-3.335 3,-5c-1.65,0 -11.006,3.145 -11.006,3.145c0,0 -7.765,2.372 -11.701,3.617c-25.299,7.988 -50.83,14.457 -76.668,20.426c-1.09,0.252 -2.181,0.504 -3.304,0.764c-3.218,0.742 -6.437,1.48 -9.657,2.216c-1.042,0.239 -2.084,0.478 -3.157,0.724c-5.422,1.23 -10.849,2.387 -16.309,3.442c-1.099,0.216 -2.198,0.431 -3.331,0.654c-2.093,0.406 -4.188,0.8 -6.287,1.178c-6.721,1.233 -6.721,1.233 -11.581,5.833c-1.094,1.864 -1.094,1.864 -2,3.875c-7.032,13.171 -19.422,24.465 -30.93,33.668c-2.112,1.69 -4.196,3.393 -6.266,5.133c-16.032,13.332 -33.926,24.334 -51.613,35.316c-9.051,5.625 -17.883,11.311 -26.191,18.008c-0.83,0.665 -1.66,1.33 -2.516,2.016c-13.534,11.383 -16.887,26.255 -20.297,42.922c-0.219,1.066 -0.438,2.132 -0.664,3.23c-2.386,9.894 -2.386,9.894 0.024,19.238c0.727,0.691 1.454,1.382 2.203,2.094c17.406,17.894 30.477,40.516 43.911,61.419c1.158,1.799 2.324,3.593 3.492,5.386c3.428,5.295 6.597,10.675 9.551,16.25c1.053,1.986 5.768,9.138 5.241,11.122c-6.896,9.438 -71.027,17.913 -82.914,19.339c0,33.99 -0.03,68.964 -0.03,103.984c3.3,-4.29 6.6,-8.58 10,-13c3.588,-4.402 7.278,-8.711 11,-13c0.727,-0.84 1.454,-1.681 2.203,-2.547c51.455,-58.316 123.78,-79.366 199.297,-85.203c0.824,-0.065 1.648,-0.13 2.498,-0.198c9.214,-0.716 18.367,-1.13 27.61,-1.085c1.365,0.003 1.365,0.003 2.758,0.007c2.212,0.006 4.423,0.014 6.635,0.025c-0.005,-0.613 -0.01,-1.225 -0.016,-1.856c-0.167,-19.902 -0.328,-39.804 -0.484,-59.706c-0.006,-0.757 -0.012,-1.514 -0.018,-2.293c-0.306,-38.985 -0.585,-77.97 -0.544,-116.957c0.001,-1.246 0.001,-1.246 0.003,-2.518c0.011,-9.557 0.029,-19.113 0.06,-28.67c1.914,-0.961 3.828,-1.922 5.742,-2.881c1.066,-0.535 2.132,-1.07 3.23,-1.621c3.495,-1.729 7.009,-3.332 10.591,-4.873c1.156,-0.503 2.313,-1.005 3.504,-1.523c2.934,-1.102 2.934,-1.102 5.934,-1.102c0.749,31.287 1.182,62.563 1.303,93.859c0.022,5.561 0.05,11.122 0.076,16.683c0.049,10.443 0.094,20.885 0.138,31.328c0.05,11.926 0.105,23.852 0.16,35.778c0.113,24.451 0.22,48.902 0.323,73.353c-0.622,-0.002 -1.244,-0.003 -1.885,-0.005c-6.573,-0.017 -13.146,-0.028 -19.719,-0.036c-2.441,-0.004 -4.882,-0.009 -7.324,-0.015c-37.81,-0.099 -75.24,1.825 -112.073,11.057c-0.993,0.246 -1.985,0.492 -3.008,0.745c-16.238,4.091 -31.629,9.616 -46.992,16.255c-0.853,0.363 -1.706,0.726 -2.584,1.101c-19.706,8.48 -41.521,20.008 -56.803,35.29c-1.363,1.057 -7.041,6.187 -7.612,6.609c3.354,-1.598 6.478,-3.465 9.625,-5.438c0.962,-0.597 1.923,-1.194 2.914,-1.809c2.543,-1.603 6.441,-4.754 7.461,-4.754c2.625,-1.408 5.184,-2.866 7.75,-4.375c40.349,-22.942 86.494,-33.284 132.375,-37.258c1.124,-0.097 1.124,-0.097 2.27,-0.197c20.42,-1.709 40.859,-1.516 61.334,-1.377c5.131,0.031 10.261,0.045 15.392,0.06c9.96,0.032 19.919,0.082 29.879,0.146c-0.001,-0.872 -0.001,-0.872 -0.001,-1.761c-0.022,-34.412 -0.04,-68.825 -0.05,-103.237c-0.001,-4.128 -0.003,-8.257 -0.004,-12.385c-0,-0.822 -0.001,-1.644 -0.001,-2.491c-0.004,-13.323 -0.012,-26.646 -0.021,-39.969c-0.009,-13.662 -0.015,-27.324 -0.017,-40.986c-0.001,-8.436 -0.006,-16.872 -0.014,-25.308c-0.005,-5.778 -0.007,-11.556 -0.006,-17.334c0.001,-3.338 -0.001,-6.676 -0.006,-10.014c-0.005,-3.612 -0.004,-7.224 -0.001,-10.836c-0.003,-1.064 -0.006,-2.128 -0.009,-3.225c0.002,-0.962 0.004,-1.924 0.006,-2.915c-0.001,-1.252 -0.001,-1.252 -0.001,-2.529c0.124,-2.012 0.124,-2.012 1.124,-4.012c1.719,-0.818 3.478,-1.554 5.25,-2.25c5.816,-2.336 11.475,-4.92 17.133,-7.613c2.617,-1.137 2.617,-1.137 4.617,-1.137c1.07,36.206 1.438,72.424 1.839,108.642c0.096,8.705 0.196,17.41 0.302,26.115c0.755,62.417 0.993,124.822 0.859,187.243c-0.598,-0.086 -1.196,-0.172 -1.812,-0.261c-2.743,-0.395 -5.487,-0.788 -8.231,-1.182c-1.41,-0.203 -1.41,-0.203 -2.849,-0.41c-7.255,-1.04 -14.511,-1.97 -21.796,-2.772c-1.042,-0.121 -2.084,-0.242 -3.158,-0.367c-15.124,-1.684 -30.268,-2.168 -45.475,-2.176c-1.598,-0.003 -3.197,-0.007 -4.795,-0.01c-3.323,-0.006 -6.645,-0.008 -9.968,-0.007c-3.351,0 -6.701,-0.007 -10.052,-0.021c-19.056,-0.076 -37.898,0.103 -56.865,2.206c-1.419,0.151 -1.419,0.151 -2.868,0.304c-41.062,4.37 -82.042,15.325 -118.132,35.696c1.035,-0.301 1.035,-0.301 2.091,-0.607c42.929,-12.378 85.894,-20.535 130.597,-22.58c1.402,-0.064 1.402,-0.064 2.832,-0.13c44.387,-1.963 79.58,-2.578 135.519,7.885c0.048,13.981 -0.018,24.368 -0.038,27.433c-0.787,-0.193 -28.511,-5.335 -29.773,-5.507c-10.26,-1.345 -20.54,-2.327 -30.852,-3.18c-0.73,-0.061 -1.459,-0.121 -2.211,-0.184c-18.891,-1.549 -37.708,-2.335 -56.664,-2.316c-1.019,0 -2.037,0.001 -3.087,0.001c-53.868,0.066 -108.076,4.997 -159.476,21.937c-1.244,0.407 -2.487,0.813 -3.769,1.232c-6.333,2.141 -12.363,4.511 -18.368,7.455c-19.247,9.221 -19.247,9.221 -30.886,5.143c-4.386,-1.857 -8.646,-3.898 -12.882,-6.073c-4.57,-2.271 -9.289,-3.995 -14.095,-5.694c-0.889,-0.322 -1.778,-0.644 -2.694,-0.975c-37.029,-13.21 -76.127,-19.347 -115.243,-21.837c-0.875,-0.058 -1.75,-0.116 -2.651,-0.175c-83.803,-6.68 -83.803,-6.68 -164.349,10.175l0,-26c56.704,-18.901 136.377,-13.591 194.438,-3.551c2.943,0.455 37.018,7.883 39.178,8.404c7.6,1.853 15.085,3.908 22.546,6.27c3.585,1.107 7.188,2.017 10.839,2.876c-50.894,-25.71 -105.622,-38.058 -162.605,-38.203c-1.153,-0.004 -1.153,-0.004 -2.33,-0.009c-4.087,-0.015 -8.175,-0.024 -12.262,-0.029c-3.289,-0.004 -6.578,-0.018 -9.867,-0.041c-29.078,-0.199 -57.967,1.021 -86.728,5.633c-3.039,0.48 -7.669,0.679 -14.307,1.341c0.01,-13.518 0.375,-56.759 0.391,-63.452c0.023,-9.676 0.051,-19.353 0.08,-29.029c0.048,-15.699 0.091,-31.397 0.131,-47.096c0.039,-15.251 0.081,-30.502 0.125,-45.753c0.004,-1.41 0.004,-1.41 0.008,-2.848c0.014,-4.715 0.027,-9.43 0.041,-14.145c0.114,-39.123 0.221,-78.247 0.323,-117.37c3.821,-1.274 4.64,-0.503 8.184,1.238c1.01,0.49 2.02,0.981 3.061,1.486c1.054,0.524 2.108,1.048 3.193,1.588c1.575,0.769 1.575,0.769 3.182,1.553c4.138,2.023 8.261,4.074 12.381,6.135c0.15,33.861 0.296,67.722 0.433,101.583c0.016,3.999 0.033,7.998 0.049,11.997c0.003,0.796 0.007,1.592 0.01,2.413c0.053,12.885 0.109,25.77 0.167,38.655c0.059,13.225 0.114,26.449 0.166,39.674c0.032,8.158 0.067,16.316 0.106,24.474c0.03,6.259 0.054,12.518 0.076,18.778c0.01,2.565 0.022,5.13 0.035,7.695c0.018,3.504 0.03,7.009 0.04,10.513c0.01,1.519 0.01,1.519 0.021,3.069c0.009,5.801 0.046,7.767 0.097,16.081c2.888,-0.238 41.354,-1.176 55.425,-1.181c0.741,-0.001 1.481,-0.001 2.244,-0.002c22.51,-0.013 44.776,0.35 67.131,3.252c1.787,0.217 1.787,0.217 3.61,0.438c50.811,6.249 99.114,23.67 141.39,52.562c-11.166,-11.739 -25.111,-20.821 -39,-29c-1.147,-0.691 -2.294,-1.383 -3.441,-2.074c-42.587,-25.118 -92.592,-36.491 -141.559,-39.926c-0.734,-0.056 -1.468,-0.113 -2.224,-0.171c-10.668,-0.804 -59.019,-0.34 -70.776,0.171l0,-253c0.66,-0.33 1.32,-0.66 2,-1c2.291,0.804 2.291,0.804 5.121,2.09c1.018,0.454 2.035,0.909 3.084,1.377c1.067,0.485 2.133,0.971 3.232,1.471c2.101,0.952 4.203,1.898 6.309,2.84c0.935,0.425 1.87,0.851 2.834,1.289c2.454,1.114 4.315,1.646 7.458,2.839c0.174,2.431 0.057,5.214 0.202,9.542c0.029,0.872 0.003,1.745 0.005,2.644c0.003,2.934 -0.008,5.868 -0.019,8.803c-0.001,2.099 -0,4.198 0.001,6.297c0.001,5.708 -0.011,11.417 -0.025,17.125c-0.012,5.962 -0.014,11.924 -0.016,17.885c-0.006,11.294 -0.023,22.588 -0.043,33.882c-0.022,12.856 -0.033,25.712 -0.043,38.568c-0.021,26.45 -0.056,52.9 -0.101,79.35c1.135,-0.005 2.271,-0.01 3.441,-0.016c4.21,-0.018 8.42,-0.03 12.63,-0.039c1.823,-0.005 20.506,0.516 24.929,1.055c1.868,0.228 3.742,0.414 5.617,0.578c66.892,6.174 155.633,37.487 206.348,113.377c0.33,-32.67 0.134,-70.331 0.028,-103.939c-24.016,-2.271 -47.965,-8.314 -79.993,-19.016c0.53,-4.29 1.479,-7.344 3.695,-11.047c0.552,-0.928 1.103,-1.856 1.672,-2.812c0.87,-1.431 0.87,-1.431 1.758,-2.891c0.557,-0.938 1.114,-1.877 1.688,-2.844c3.298,-5.501 6.792,-10.804 10.509,-16.03c2.581,-3.653 5.029,-7.392 7.491,-11.126c5.228,-7.877 10.599,-15.625 16.188,-23.25c0.469,-0.642 0.938,-1.284 1.421,-1.945c5.795,-7.904 11.671,-15.645 18.278,-22.895c2.728,-3.083 3.301,-3.847 3.301,-8.16c0,-0.33 -7.752,-28.584 -7.752,-28.584c0,0 -4.099,-21.395 -31.31,-43.291c-0.955,-0.769 -2.017,-1.394 -3.056,-2.112c-6.356,-4.364 -12.798,-8.541 -19.371,-12.57c-28.262,-17.405 -60.566,-41.681 -76.51,-71.444c-1.057,-1.973 -4.206,-5.563 -7.291,-6.499c-9.981,-3.029 -16.047,-3.734 -26.209,-6.064c-0.965,-0.221 -1.931,-0.441 -2.926,-0.668c-36.837,-8.428 -73.918,-17.112 -109.574,-29.769c4.771,10.274 10.421,19.652 16.711,29.059c1.125,1.695 2.223,3.408 3.316,5.125c7.533,11.737 16.658,22.457 25.973,32.816c0.612,0.704 1.225,1.408 1.855,2.133c10.421,11.848 21.542,23.34 34.145,32.867c0.995,0.761 0.995,0.761 2.009,1.537c11.589,8.838 23.508,16.944 35.991,24.463c0.639,0.39 1.277,0.779 1.936,1.181c39.623,23.998 85.695,38.938 129.683,52.774c14.445,3.762 25.19,8.525 26.381,11.045c0.637,1.348 -0.573,4.815 -2,5c-9.16,0.352 -17.929,-3.369 -26.438,-6.312c-1.592,-0.542 -3.183,-1.084 -4.775,-1.625c-3.295,-1.121 -6.589,-2.249 -9.88,-3.381c-4.682,-1.608 -9.373,-3.186 -14.067,-4.76c-18.171,-6.108 -36.112,-12.61 -53.84,-19.922c-1.21,-0.496 -2.419,-0.992 -3.666,-1.502c-23.84,-9.811 -46.928,-21.002 -68.307,-35.521c-2.897,-2.074 -8.706,-5.631 -10.027,-6.977c-1.624,-1.217 -3.272,-2.403 -4.938,-3.562c-6.678,-4.786 -12.85,-10.072 -19.062,-15.438c-1.027,-0.857 -1.027,-0.857 -2.074,-1.73c-4.799,-4.049 -9.228,-8.469 -13.676,-12.895c-0.651,-0.646 -1.302,-1.292 -1.972,-1.958c-9.278,-9.309 -10.598,-12.417 -11.278,-12.417c-1.493,-1.677 -1.493,-1.677 -3.23,-4.023c-0.958,-1.286 -0.958,-1.286 -1.936,-2.598c-0.667,-0.909 -1.334,-1.818 -2.021,-2.754c-0.648,-0.87 -1.296,-1.74 -1.963,-2.637c-7.451,-10.048 -21.589,-32.212 -21.97,-32.842c-5.553,-9.207 -10.859,-18.553 -16.067,-27.959c-0.589,-1.045 -1.179,-2.089 -1.786,-3.165c-0.539,-0.983 -1.077,-1.966 -1.632,-2.979c-0.486,-0.876 -0.972,-1.753 -1.473,-2.656c-1.027,-2.662 -0.932,-3.767 0.079,-6.387c0.918,0.311 1.835,0.622 2.781,0.943c39.997,13.539 80.183,25.406 121.275,35.189c1.956,0.466 3.913,0.933 5.869,1.399c6.389,1.524 12.781,3.034 19.178,4.522c31.1,7.308 31.1,7.308 44.522,15.759c0.704,0.429 1.408,0.858 2.133,1.3c2.091,1.281 4.167,2.581 6.242,3.888c0.595,0.37 1.19,0.74 1.803,1.121c7.398,4.606 14.584,9.499 21.76,14.441c7.349,5.06 14.771,9.868 22.438,14.438c1.383,0.87 1.383,0.87 2.793,1.758c12.374,7.612 30.957,17.737 45.848,17.082c3.818,-0.955 5.035,-1.71 7.359,-4.84c5.381,-10.602 7.653,-22.475 10.312,-33.969c2.698,-11.496 5.646,-23.488 10.721,-34.216c1.181,-3.439 1.194,-10.941 1.195,-12.002c-0.001,-2.278 -0.017,-4.556 -0.033,-6.834c-0.004,-1.585 -0.007,-3.169 -0.009,-4.754c-0.008,-4.161 -0.027,-8.322 -0.049,-12.483c-0.02,-4.25 -0.03,-8.5 -0.04,-12.75c-0.021,-8.331 -0.098,-24.994 -0.098,-24.994l-84.972,0.06l-0.211,-18.173l85.184,0.113l-0.036,-137.003Zm6.036,233.003c-3.722,9.981 -6.859,20.01 -9.223,30.398c-0.189,0.827 -0.378,1.654 -0.573,2.506c-0.945,4.162 -1.86,8.327 -2.743,12.502c-2.346,10.749 -5.378,21.593 -13.086,29.906c-8.198,4.099 -16.75,1.944 -25.062,-0.812c-22.921,-8.068 -42.732,-20.073 -62.625,-33.875c-1.656,-1.146 -3.312,-2.292 -4.969,-3.437c-1.161,-0.803 -2.321,-1.609 -3.479,-2.416c-7.241,-5.032 -14.582,-9.677 -22.364,-13.835c-0.711,-0.382 -1.421,-0.764 -2.153,-1.158c-3.557,-1.854 -6.687,-3.269 -10.722,-3.779c0.33,1.32 1.282,3.992 1.282,3.992c7.756,14.702 25.862,28.979 38.718,39.008c1.057,0.878 2.112,1.76 3.164,2.645c10.385,8.65 21.559,16.017 32.863,23.406c5.011,3.286 9.991,6.62 14.973,9.95c0.645,0.428 1.289,0.856 1.953,1.296c23.613,15.694 35.173,31.099 40.916,59.15c7.432,38.355 14.105,124.76 15.131,126.554l9,0c1.592,-12.267 3.072,-24.543 4.438,-36.837c6.356,-57.202 6.356,-57.202 12,-85.413c0.133,-0.685 0.267,-1.37 0.404,-2.076c1.504,-7.644 3.438,-14.976 6.139,-22.283c0.24,-0.652 0.479,-1.304 0.726,-1.976c2.426,-6.277 5.937,-11.337 10.293,-16.414c0.547,-0.657 1.093,-1.315 1.656,-1.992c10.164,-11.135 24.217,-19.123 37.084,-26.698c7.624,-4.489 14.982,-9.282 22.26,-14.31c0.682,-0.469 1.363,-0.938 2.065,-1.421c15.707,-10.842 30.191,-22.324 43.935,-35.579c0.902,-0.861 1.805,-1.722 2.734,-2.609c4.598,-4.475 8.603,-9.12 12.266,-14.391c-0.33,-0.66 -0.66,-1.32 -1,-2c-14.98,7.31 -29.401,15.08 -43.199,24.449c-5.913,4.001 -11.994,7.739 -18.073,11.481c-1.461,0.904 -2.912,1.825 -4.36,2.749c-16.402,10.286 -40.64,23.212 -60.367,20.32c-6.375,-2.782 -9.362,-8.131 -11.988,-14.334c-2.816,-7.549 -4.654,-15.181 -6.387,-23.041c-2.106,-9.329 -4.314,-18.612 -6.938,-27.812c-0.363,-1.289 -0.363,-1.289 -0.734,-2.605c-1.036,-3.556 -1.871,-6.083 -3.954,-9.208Zm20,190c-2.731,17.449 -5.022,34.904 -6.865,52.468c-0.391,3.718 -0.794,7.436 -1.197,11.153c-0.256,2.4 -1.583,22.447 -1.938,28.379c6.911,0.171 13.427,-0.414 20.25,-1.5c1.06,-0.169 2.119,-0.337 3.211,-0.511c8.991,-1.535 17.753,-3.696 26.539,-6.114c0.646,-0.176 1.292,-0.351 1.957,-0.532c5.576,-1.5 5.576,-1.5 11.043,-3.343c0.33,-0.66 0.66,-1.32 1,-2c-0.771,-1.899 -0.771,-1.899 -2.035,-3.969c-0.467,-0.806 -0.934,-1.611 -1.415,-2.441c-2.626,-4.387 -5.287,-8.749 -7.988,-13.09c-0.547,-0.886 -1.094,-1.771 -1.658,-2.684c-3.086,-4.974 -6.247,-9.886 -9.513,-14.744c-1.263,-1.881 -2.507,-3.772 -3.743,-5.67c-5.755,-8.793 -11.895,-17.228 -18.284,-25.57c-1.399,-1.879 -2.714,-3.803 -4.033,-5.738c-2.037,-3.31 -2.037,-3.31 -5.332,-4.094Zm-50.441,5.275c-0.441,0.598 -0.882,1.195 -1.336,1.811c-0.507,0.674 -4.294,5.818 -4.878,6.605c-1.794,2.427 -3.569,4.867 -5.344,7.309c-1.118,1.514 -2.236,3.027 -3.355,4.539c-7.287,9.904 -14.103,20.052 -20.645,30.461c-0.574,0.909 -1.148,1.818 -1.74,2.755c-1.822,2.89 -3.637,5.785 -5.448,8.683c-0.577,0.919 -1.155,1.838 -1.75,2.784c-0.53,0.854 -1.06,1.707 -1.605,2.587c-0.475,0.761 -0.949,1.522 -1.438,2.306c-1.177,1.821 -1.177,1.821 -1.019,3.885c20.449,6.576 32.131,10.344 62,13c-1.334,-22.203 -2.753,-44.38 -5.125,-66.5c-0.086,-0.808 -0.172,-1.616 -0.261,-2.448c-0.967,-9.577 -1.244,-14.354 -2.199,-23.829c-1.952,-0.442 -3.51,2.871 -5.857,6.052Z" style="fill:url(#_Linear1);fill-rule:nonzero;"/><defs><linearGradient id="_Linear1" x1="0" y1="0" x2="1" y2="0" gradientUnits="userSpaceOnUse" gradientTransform="matrix(-0.532264,327.536523,-327.536523,-0.532264,343,137.634995)"><stop offset="0" style="stop-color:#2ba2ff;stop-opacity:1"/><stop offset="1" style="stop-color:#005394;stop-opacity:1"/></linearGradient></defs></svg>